# xmcd
#
# Track frame offsets:
#	150
#	15548
#	47865
#	86708
#	99250
#	121858
#	139463
#	158400
#	176623
#	197153
#
# Disc length: 3096 seconds
#
# Revision: 0
# Processed by: cddbd v1.5.2PL0 Copyright (c) Steve Scherf et al.
# Submitted via: EasyCDDAExtractor 16.0.1.1
#
DISCID=7c0c160a
DTITLE=Ronnie Wood and Bo Diddley - Live At The Ritz 1987
DYEAR=1987
DGENRE=Blues
TTITLE0=Ronnie Wood and Bo Diddley - Road Runner
TTITLE1=Ronnie Wood and Bo Diddley - I'm A Man
TTITLE2=Ronnie Wood and Bo Diddley - Crackin' Up
TTITLE3=Ronnie Wood and Bo Diddley - Hey Bo Diddley
TTITLE4=Plynth - Water Down The Drain
TTITLE5=Ronnie Wood and Bo Diddley - Ooh La La Song
TTITLE6=Ronnie Wood and Bo Diddley - They Dont Make Outlaws Like They Used To
TTITLE7=Ronnie Wood and Bo Diddley - Honky Tonk Women
TTITLE8=Ronnie Wood and Bo Diddley - Money To Ronnie
TTITLE9=Ronnie Wood and Bo Diddley - Who Do You Love
EXTD=
EXTT0=
EXTT1=
EXTT2=
EXTT3=
EXTT4=
EXTT5=
EXTT6=
EXTT7=
EXTT8=
EXTT9=
PLAYORDER=
